<svg xmlns="http://www.w3.org/2000/svg" xmlns:xlink="http://www.w3.org/1999/xlink" viewBox="0 0 143.46 143.46"><defs><style>.cls-1{fill:none;}.cls-2{clip-path:url(#clip-path);}.cls-3{fill:#fff;}.cls-4{clip-path:url(#clip-path-2);}.cls-5{clip-path:url(#clip-path-3);}.cls-6{clip-path:url(#clip-path-4);}.cls-7{clip-path:url(#clip-path-5);}.cls-8{clip-path:url(#clip-path-6);}.cls-9{clip-path:url(#clip-path-7);}</style><clipPath id="clip-path" transform="translate(0 0.08)"><rect class="cls-1" width="69.15" height="15.72"/></clipPath><clipPath id="clip-path-2" transform="translate(0 0.08)"><rect class="cls-1" x="53.15" y="73.72" width="16" height="69.66"/></clipPath><clipPath id="clip-path-3" transform="translate(0 0.08)"><rect class="cls-1" x="26.15" y="73.72" width="16" height="69.66"/></clipPath><clipPath id="clip-path-4" transform="translate(0 0.08)"><rect class="cls-1" y="73.72" width="15.15" height="69.66"/></clipPath><clipPath id="clip-path-5" transform="translate(0 0.08)"><rect class="cls-1" x="128.15" width="15.3" height="68.72"/></clipPath><clipPath id="clip-path-6" transform="translate(0 0.08)"><rect class="cls-1" x="101.15" width="16" height="68.72"/></clipPath><clipPath id="clip-path-7" transform="translate(0 0.08)"><rect class="cls-1" x="74.15" width="16" height="68.72"/></clipPath></defs><g id="Layer_2" data-name="Layer 2"><g id="Layer_1-2" data-name="Layer 1"><g class="cls-2"><rect class="cls-3" width="68.74" height="14.95"/></g><rect class="cls-3" y="26.9" width="68.74" height="14.95"/><rect class="cls-3" y="53.8" width="68.74" height="14.95"/><rect class="cls-3" x="74.71" y="74.72" width="68.74" height="14.94"/><rect class="cls-3" x="74.71" y="101.62" width="68.74" height="14.94"/><rect class="cls-3" x="74.71" y="128.52" width="68.74" height="14.94"/><g class="cls-4"><rect class="cls-3" x="53.8" y="74.72" width="14.94" height="68.74"/></g><g class="cls-5"><rect class="cls-3" x="26.9" y="74.72" width="14.94" height="68.74"/></g><g class="cls-6"><rect class="cls-3" y="74.72" width="14.94" height="68.74"/></g><g class="cls-7"><rect class="cls-3" x="128.51" width="14.95" height="68.74"/></g><g class="cls-8"><rect class="cls-3" x="101.61" width="14.95" height="68.74"/></g><g class="cls-9"><rect class="cls-3" x="74.71" width="14.95" height="68.74"/></g></g></g></svg>